<mxfile host="Electron" agent="Mozilla/5.0 (Windows NT 10.0; Win64; x64) AppleWebKit/537.36 (KHTML, like Gecko) draw.io/24.7.17 Chrome/128.0.6613.36 Electron/32.0.1 Safari/537.36" version="24.7.17">
  <diagram name="Page-1" id="vPjlNsLWi6k1DFKi4ytI">
    <mxGraphModel dx="1615" dy="955" grid="1" gridSize="10" guides="1" tooltips="1" connect="1" arrows="1" fold="1" page="1" pageScale="1" pageWidth="850" pageHeight="1100" math="0" shadow="0">
      <root>
        <mxCell id="0" />
        <mxCell id="1" parent="0" />
        <mxCell id="W43h-158gTOUMmalIuhp-14" value="" style="rounded=1;whiteSpace=wrap;html=1;labelBackgroundColor=#FFFFFF;" vertex="1" parent="1">
          <mxGeometry x="570" y="330" width="220" height="470" as="geometry" />
        </mxCell>
        <mxCell id="5UBG64lmhIq0p5iC4C_D-5" value="" style="rounded=1;whiteSpace=wrap;html=1;labelBackgroundColor=#FFFFFF;" parent="1" vertex="1">
          <mxGeometry x="280" y="340" width="220" height="470" as="geometry" />
        </mxCell>
        <mxCell id="5UBG64lmhIq0p5iC4C_D-1" value="" style="rounded=0;whiteSpace=wrap;html=1;fillColor=none;dashed=1;" parent="1" vertex="1">
          <mxGeometry x="40" y="280" width="160" height="520" as="geometry" />
        </mxCell>
        <mxCell id="5UBG64lmhIq0p5iC4C_D-2" value="&lt;font style=&quot;font-size: 24px;&quot;&gt;Sources&lt;/font&gt;" style="rounded=0;whiteSpace=wrap;html=1;" parent="1" vertex="1">
          <mxGeometry x="60" y="240" width="120" height="60" as="geometry" />
        </mxCell>
        <mxCell id="5UBG64lmhIq0p5iC4C_D-12" style="edgeStyle=orthogonalEdgeStyle;rounded=0;orthogonalLoop=1;jettySize=auto;html=1;entryX=0;entryY=0.5;entryDx=0;entryDy=0;" parent="1" source="5UBG64lmhIq0p5iC4C_D-3" target="5UBG64lmhIq0p5iC4C_D-9" edge="1">
          <mxGeometry relative="1" as="geometry" />
        </mxCell>
        <mxCell id="5UBG64lmhIq0p5iC4C_D-13" style="edgeStyle=orthogonalEdgeStyle;rounded=0;orthogonalLoop=1;jettySize=auto;html=1;entryX=0;entryY=0.5;entryDx=0;entryDy=0;" parent="1" source="5UBG64lmhIq0p5iC4C_D-3" target="5UBG64lmhIq0p5iC4C_D-8" edge="1">
          <mxGeometry relative="1" as="geometry" />
        </mxCell>
        <mxCell id="5UBG64lmhIq0p5iC4C_D-14" style="edgeStyle=orthogonalEdgeStyle;rounded=0;orthogonalLoop=1;jettySize=auto;html=1;" parent="1" source="5UBG64lmhIq0p5iC4C_D-3" target="5UBG64lmhIq0p5iC4C_D-10" edge="1">
          <mxGeometry relative="1" as="geometry" />
        </mxCell>
        <mxCell id="5UBG64lmhIq0p5iC4C_D-3" value="CRM" style="html=1;verticalLabelPosition=bottom;align=center;labelBackgroundColor=none;verticalAlign=top;strokeWidth=2;strokeColor=#0080F0;shadow=0;dashed=0;shape=mxgraph.ios7.icons.folders;" parent="1" vertex="1">
          <mxGeometry x="82.5" y="430" width="75" height="70" as="geometry" />
        </mxCell>
        <mxCell id="5UBG64lmhIq0p5iC4C_D-21" style="edgeStyle=orthogonalEdgeStyle;rounded=0;orthogonalLoop=1;jettySize=auto;html=1;entryX=0;entryY=0.5;entryDx=0;entryDy=0;" parent="1" source="5UBG64lmhIq0p5iC4C_D-4" target="5UBG64lmhIq0p5iC4C_D-17" edge="1">
          <mxGeometry relative="1" as="geometry">
            <Array as="points">
              <mxPoint x="236" y="650" />
              <mxPoint x="236" y="705" />
            </Array>
          </mxGeometry>
        </mxCell>
        <mxCell id="5UBG64lmhIq0p5iC4C_D-4" value="ERP" style="html=1;verticalLabelPosition=bottom;align=center;labelBackgroundColor=none;verticalAlign=top;strokeWidth=2;strokeColor=#0080F0;shadow=0;dashed=0;shape=mxgraph.ios7.icons.folders;" parent="1" vertex="1">
          <mxGeometry x="82.5" y="610" width="75" height="70" as="geometry" />
        </mxCell>
        <mxCell id="5UBG64lmhIq0p5iC4C_D-6" value="&lt;font style=&quot;font-size: 24px;&quot;&gt;Bronze Layer&lt;/font&gt;" style="rounded=0;whiteSpace=wrap;html=1;labelBackgroundColor=none;fillColor=#FFE599;fontColor=#212121;" parent="1" vertex="1">
          <mxGeometry x="315" y="280" width="150" height="60" as="geometry" />
        </mxCell>
        <mxCell id="W43h-158gTOUMmalIuhp-8" style="edgeStyle=orthogonalEdgeStyle;rounded=0;orthogonalLoop=1;jettySize=auto;html=1;exitX=1;exitY=0.5;exitDx=0;exitDy=0;entryX=0;entryY=0.5;entryDx=0;entryDy=0;" edge="1" parent="1" source="5UBG64lmhIq0p5iC4C_D-8" target="W43h-158gTOUMmalIuhp-2">
          <mxGeometry relative="1" as="geometry" />
        </mxCell>
        <mxCell id="5UBG64lmhIq0p5iC4C_D-8" value="&lt;font style=&quot;font-size: 15px;&quot;&gt;crm_sales_details&lt;/font&gt;" style="rounded=0;whiteSpace=wrap;html=1;labelBackgroundColor=none;fillColor=#FFE599;fontColor=#212121;" parent="1" vertex="1">
          <mxGeometry x="315" y="380" width="150" height="50" as="geometry" />
        </mxCell>
        <mxCell id="W43h-158gTOUMmalIuhp-9" style="edgeStyle=orthogonalEdgeStyle;rounded=0;orthogonalLoop=1;jettySize=auto;html=1;entryX=0;entryY=0.5;entryDx=0;entryDy=0;" edge="1" parent="1" source="5UBG64lmhIq0p5iC4C_D-9" target="W43h-158gTOUMmalIuhp-3">
          <mxGeometry relative="1" as="geometry" />
        </mxCell>
        <mxCell id="5UBG64lmhIq0p5iC4C_D-9" value="&lt;font style=&quot;font-size: 15px;&quot;&gt;crm_cust_info&lt;/font&gt;" style="rounded=0;whiteSpace=wrap;html=1;labelBackgroundColor=none;fillColor=#FFE599;fontColor=#212121;" parent="1" vertex="1">
          <mxGeometry x="315" y="440" width="150" height="50" as="geometry" />
        </mxCell>
        <mxCell id="W43h-158gTOUMmalIuhp-10" style="edgeStyle=orthogonalEdgeStyle;rounded=0;orthogonalLoop=1;jettySize=auto;html=1;entryX=0;entryY=0.5;entryDx=0;entryDy=0;" edge="1" parent="1" source="5UBG64lmhIq0p5iC4C_D-10" target="W43h-158gTOUMmalIuhp-4">
          <mxGeometry relative="1" as="geometry" />
        </mxCell>
        <mxCell id="5UBG64lmhIq0p5iC4C_D-10" value="&lt;font style=&quot;font-size: 15px;&quot;&gt;crm_prd_info&lt;/font&gt;" style="rounded=0;whiteSpace=wrap;html=1;labelBackgroundColor=none;fillColor=#FFE599;fontColor=#212121;" parent="1" vertex="1">
          <mxGeometry x="315" y="500" width="150" height="40" as="geometry" />
        </mxCell>
        <mxCell id="W43h-158gTOUMmalIuhp-11" style="edgeStyle=orthogonalEdgeStyle;rounded=0;orthogonalLoop=1;jettySize=auto;html=1;" edge="1" parent="1" source="5UBG64lmhIq0p5iC4C_D-15" target="W43h-158gTOUMmalIuhp-5">
          <mxGeometry relative="1" as="geometry" />
        </mxCell>
        <mxCell id="5UBG64lmhIq0p5iC4C_D-15" value="&lt;font style=&quot;font-size: 15px;&quot;&gt;crm_sales_details&lt;/font&gt;" style="rounded=0;whiteSpace=wrap;html=1;labelBackgroundColor=none;fillColor=#FFE599;fontColor=#212121;" parent="1" vertex="1">
          <mxGeometry x="314.5" y="565" width="150" height="50" as="geometry" />
        </mxCell>
        <mxCell id="W43h-158gTOUMmalIuhp-12" style="edgeStyle=orthogonalEdgeStyle;rounded=0;orthogonalLoop=1;jettySize=auto;html=1;exitX=1;exitY=0.5;exitDx=0;exitDy=0;" edge="1" parent="1" source="5UBG64lmhIq0p5iC4C_D-16" target="W43h-158gTOUMmalIuhp-6">
          <mxGeometry relative="1" as="geometry" />
        </mxCell>
        <mxCell id="5UBG64lmhIq0p5iC4C_D-16" value="&lt;font style=&quot;font-size: 15px;&quot;&gt;crm_cust_info&lt;/font&gt;" style="rounded=0;whiteSpace=wrap;html=1;labelBackgroundColor=none;fillColor=#FFE599;fontColor=#212121;" parent="1" vertex="1">
          <mxGeometry x="314.5" y="625" width="150" height="50" as="geometry" />
        </mxCell>
        <mxCell id="W43h-158gTOUMmalIuhp-13" style="edgeStyle=orthogonalEdgeStyle;rounded=0;orthogonalLoop=1;jettySize=auto;html=1;exitX=1;exitY=0.5;exitDx=0;exitDy=0;entryX=0;entryY=0.5;entryDx=0;entryDy=0;" edge="1" parent="1" source="5UBG64lmhIq0p5iC4C_D-17" target="W43h-158gTOUMmalIuhp-7">
          <mxGeometry relative="1" as="geometry" />
        </mxCell>
        <mxCell id="5UBG64lmhIq0p5iC4C_D-17" value="&lt;font style=&quot;font-size: 15px;&quot;&gt;crm_prd_info&lt;/font&gt;" style="rounded=0;whiteSpace=wrap;html=1;labelBackgroundColor=none;fillColor=#FFE599;fontColor=#212121;" parent="1" vertex="1">
          <mxGeometry x="314.5" y="685" width="150" height="40" as="geometry" />
        </mxCell>
        <mxCell id="5UBG64lmhIq0p5iC4C_D-19" style="edgeStyle=orthogonalEdgeStyle;rounded=0;orthogonalLoop=1;jettySize=auto;html=1;entryX=0;entryY=0.5;entryDx=0;entryDy=0;" parent="1" target="5UBG64lmhIq0p5iC4C_D-15" edge="1">
          <mxGeometry relative="1" as="geometry">
            <mxPoint x="157.5" y="650" as="sourcePoint" />
          </mxGeometry>
        </mxCell>
        <mxCell id="5UBG64lmhIq0p5iC4C_D-20" style="edgeStyle=orthogonalEdgeStyle;rounded=0;orthogonalLoop=1;jettySize=auto;html=1;entryX=0;entryY=0.5;entryDx=0;entryDy=0;" parent="1" target="5UBG64lmhIq0p5iC4C_D-16" edge="1">
          <mxGeometry relative="1" as="geometry">
            <mxPoint x="157.5" y="650" as="sourcePoint" />
          </mxGeometry>
        </mxCell>
        <mxCell id="W43h-158gTOUMmalIuhp-1" value="&lt;font style=&quot;font-size: 24px;&quot;&gt;Silver Layer&lt;/font&gt;" style="rounded=0;whiteSpace=wrap;html=1;labelBackgroundColor=none;fillColor=#FFE599;fontColor=#212121;" vertex="1" parent="1">
          <mxGeometry x="610.5" y="280" width="150" height="60" as="geometry" />
        </mxCell>
        <mxCell id="W43h-158gTOUMmalIuhp-2" value="&lt;font style=&quot;font-size: 15px;&quot;&gt;crm_sales_details&lt;/font&gt;" style="rounded=0;whiteSpace=wrap;html=1;labelBackgroundColor=none;fillColor=#FFE599;fontColor=#212121;" vertex="1" parent="1">
          <mxGeometry x="610.5" y="380" width="150" height="50" as="geometry" />
        </mxCell>
        <mxCell id="W43h-158gTOUMmalIuhp-3" value="&lt;font style=&quot;font-size: 15px;&quot;&gt;crm_cust_info&lt;/font&gt;" style="rounded=0;whiteSpace=wrap;html=1;labelBackgroundColor=none;fillColor=#FFE599;fontColor=#212121;" vertex="1" parent="1">
          <mxGeometry x="610.5" y="440" width="150" height="50" as="geometry" />
        </mxCell>
        <mxCell id="W43h-158gTOUMmalIuhp-4" value="&lt;font style=&quot;font-size: 15px;&quot;&gt;crm_prd_info&lt;/font&gt;" style="rounded=0;whiteSpace=wrap;html=1;labelBackgroundColor=none;fillColor=#FFE599;fontColor=#212121;" vertex="1" parent="1">
          <mxGeometry x="610.5" y="500" width="150" height="40" as="geometry" />
        </mxCell>
        <mxCell id="W43h-158gTOUMmalIuhp-5" value="&lt;font style=&quot;font-size: 15px;&quot;&gt;crm_sales_details&lt;/font&gt;" style="rounded=0;whiteSpace=wrap;html=1;labelBackgroundColor=none;fillColor=#FFE599;fontColor=#212121;" vertex="1" parent="1">
          <mxGeometry x="610" y="565" width="150" height="50" as="geometry" />
        </mxCell>
        <mxCell id="W43h-158gTOUMmalIuhp-6" value="&lt;font style=&quot;font-size: 15px;&quot;&gt;crm_cust_info&lt;/font&gt;" style="rounded=0;whiteSpace=wrap;html=1;labelBackgroundColor=none;fillColor=#FFE599;fontColor=#212121;" vertex="1" parent="1">
          <mxGeometry x="610" y="625" width="150" height="50" as="geometry" />
        </mxCell>
        <mxCell id="W43h-158gTOUMmalIuhp-7" value="&lt;font style=&quot;font-size: 15px;&quot;&gt;crm_prd_info&lt;/font&gt;" style="rounded=0;whiteSpace=wrap;html=1;labelBackgroundColor=none;fillColor=#FFE599;fontColor=#212121;" vertex="1" parent="1">
          <mxGeometry x="610" y="685" width="150" height="40" as="geometry" />
        </mxCell>
      </root>
    </mxGraphModel>
  </diagram>
</mxfile>
